{"title":"Home.Sweet.Hell.2015.WEBRip.480p.x264.AAC-VYTO [P2PDL]","uid":11694286,"size":347765411,"categoryP":"video","categoryS":"movies","magnet":"?xt=urn:btih:88cbe82ce5376f982770ee96240e329644bd2a39&amp;dn=Home.Sweet.Hell.2015.WEBRip.480p.x264.AAC-VYTO+%5BP2PDL%5D&amp;tr=udp%3A%2F%2Ftracker.openbittorrent.com%3A80&amp;tr=udp%3A%2F%2Fopen.demonii.com%3A1337&amp;tr=udp%3A%2F%2Ftracker.coppersurfer.tk%3A6969&amp;tr=udp%3A%2F%2Fexodus.desync.com%3A6969","seeders":2,"leechers":1,"uploader":"ValidusVyto","files":6,"time":1423651829,"description":"Home.Sweet.Hell.2015.WEBRip.480p.x264.AAC-VYTO\n\n\nGenre: Comedy | Drama\nIMDb: http://www.imdb.com/title/tt2802136/\n\nFormat                      : MPEG-4\nFile size                   : 327 MiB\nDuration                    : 1h 37mn\nOverall bit rate            : 467 Kbps\n\nVideo\nFormat                      : AVC\nBit rate                    : 432 Kbps\nWidth                       : 720 pixels\nHeight                      : 304 pixels\nDisplay aspect ratio        : 2.35:1\nFrame rate mode             : Constant\nFrame rate                  : 23.976 fps\nBit depth                   : 8 bits\nStream size                 : 302 MiB (92%)\nWriting library             : x264 core 142 r2491 24e4fed\n\nAudio\nFormat                      : AAC\nBit rate mode               : Variable\nBit rate                    : 32.0 Kbps\nChannel(s)                  : 2 channels\nChannel positions           : Front: L R\nSampling rate               : 48.0 KHz\nStream size                 : 22.4 MiB (7%)\nLanguage                    : English\n\nSubtitle                    : Yes(English)\n &lt;a href=&quot;\nhttp://someimage.com/vqCNaWu&quot; rel=&quot;nofollow&quot; target=&quot;_NEW&quot;&gt;\nhttp://someimage.com/vqCNaWu&lt;/a&gt; &lt;a href=&quot;\nhttp://someimage.com/LYeW2nW&quot; rel=&quot;nofollow&quot; target=&quot;_NEW&quot;&gt;\nhttp://someimage.com/LYeW2nW&lt;/a&gt; &lt;a href=&quot;\nhttp://someimage.com/DefuxNZ&quot; rel=&quot;nofollow&quot; target=&quot;_NEW&quot;&gt;\nhttp://someimage.com/DefuxNZ&lt;/a&gt; &lt;a href=&quot;\nhttp://someimage.com/l1D00jE&quot; rel=&quot;nofollow&quot; target=&quot;_NEW&quot;&gt;\nhttp://someimage.com/l1D00jE&lt;/a&gt; &lt;a href=&quot;\nhttp://someimage.com/ZKT15n0&quot; rel=&quot;nofollow&quot; target=&quot;_NEW&quot;&gt;\nhttp://someimage.com/ZKT15n0&lt;/a&gt; &lt;a href=&quot;\nhttp://someimage.com/DAbSzjj&quot; rel=&quot;nofollow&quot; target=&quot;_NEW&quot;&gt;\nhttp://someimage.com/DAbSzjj&lt;/a&gt; &lt;a href=&quot;\nhttp://someimage.com/wRhpIVP&quot; rel=&quot;nofollow&quot; target=&quot;_NEW&quot;&gt;\nhttp://someimage.com/wRhpIVP&lt;/a&gt; &lt;a href=&quot;\nhttp://someimage.com/xZtRZjW&quot; rel=&quot;nofollow&quot; target=&quot;_NEW&quot;&gt;\nhttp://someimage.com/xZtRZjW&lt;/a&gt; &lt;a href=&quot;\nhttp://someimage.com/yrmiFEe&quot; rel=&quot;nofollow&quot; target=&quot;_NEW&quot;&gt;\nhttp://someimage.com/yrmiFEe&lt;/a&gt; &lt;a href=&quot;\nhttp://someimage.com/P6cgKH3&quot; rel=&quot;nofollow&quot; target=&quot;_NEW&quot;&gt;\nhttp://someimage.com/P6cgKH3&lt;/a&gt; &lt;a href=&quot;\nhttp://someimage.com/0gPebxi&quot; rel=&quot;nofollow&quot; target=&quot;_NEW&quot;&gt;\nhttp://someimage.com/0gPebxi&lt;/a&gt; &lt;a href=&quot;\nhttp://someimage.com/scaO3dR&quot; rel=&quot;nofollow&quot; target=&quot;_NEW&quot;&gt;\nhttp://someimage.com/scaO3dR&lt;/a&gt;\n\n----------------------------------------------------------------------------------------------------\n\n\nEncoder Notes: Looking For Early Access To Anything You Can Provide DVDScr, R5, DVDR, BluRay, Direct\nAudio, Music Releases and Seedboxes. If You Got anything to offer please contact us.\n\nWe require dedicated servers, so as to do more and fast releases of movies.\nSupport us by sending us LC - LezHMTo2cYaiztCCcWxB4cNFVNVpWW3GSx","torrent":{"xt":"urn:btih:88cbe82ce5376f982770ee96240e329644bd2a39","amp;dn":"Home.Sweet.Hell.2015.WEBRip.480p.x264.AAC-VYTO+%5BP2PDL%5D","amp;tr":["udp%3A%2F%2Ftracker.openbittorrent.com%3A80","udp%3A%2F%2Fopen.demonii.com%3A1337","udp%3A%2F%2Ftracker.coppersurfer.tk%3A6969","udp%3A%2F%2Fexodus.desync.com%3A6969"],"infoHash":"88cbe82ce5376f982770ee96240e329644bd2a39","infoHashBuffer":{"type":"Buffer","data":[136,203,232,44,229,55,111,152,39,112,238,150,36,14,50,150,68,189,42,57]},"announce":[],"urlList":[]}}